<svg width="720" height="480" viewBox="0 0 720 480" fill="none" xmlns="http://www.w3.org/2000/svg">
  <rect width="720" height="480" rx="36" fill="#F6E7D4"/>
  <path d="M46 70H674" stroke="#E35B43" stroke-width="6" stroke-linecap="round" stroke-dasharray="2 14"/>
  <path d="M60 118H660M60 170H660M60 222H660M60 274H660M60 326H660M60 378H660" stroke="#D8C5AE" stroke-width="3"/>
  <path d="M110 300L164 210C176 190 197 178 219 178H402C426 178 448 189 460 210L502 282H596C619 282 638 301 638 324V334H82V317C82 307 87 297 96 291L110 300Z" stroke="#E35B43" stroke-width="10" stroke-linecap="round" stroke-linejoin="round"/>
  <path d="M192 334C192 363 168 387 138 387C108 387 84 363 84 334" stroke="#E35B43" stroke-width="10" stroke-linecap="round"/>
  <path d="M636 334C636 363 612 387 582 387C552 387 528 363 528 334" stroke="#E35B43" stroke-width="10" stroke-linecap="round"/>
  <path d="M215 196H390C407 196 421 205 429 219L457 265H178L197 219C204 205 219 196 235 196Z" stroke="#E35B43" stroke-width="8" stroke-linejoin="round"/>
  <rect x="498" y="118" width="118" height="86" rx="18" stroke="#E35B43" stroke-width="9"/>
  <path d="M558 204V252" stroke="#E35B43" stroke-width="8" stroke-linecap="round"/>
  <path d="M414 140C451 149 478 180 482 220" stroke="#E35B43" stroke-width="8" stroke-linecap="round"/>
  <path d="M382 106C438 112 487 149 507 203" stroke="#E35B43" stroke-width="8" stroke-linecap="round"/>
  <circle cx="266" cy="238" r="16" stroke="#E35B43" stroke-width="7"/>
  <path d="M248 294C257 270 277 255 300 255C322 255 343 269 352 292" stroke="#E35B43" stroke-width="7" stroke-linecap="round"/>
  <path d="M230 154C251 136 278 130 304 135" stroke="#E35B43" stroke-width="7" stroke-linecap="round"/>
  <path d="M104 130C132 118 166 121 190 138" stroke="#E35B43" stroke-width="8" stroke-linecap="round"/>
  <path d="M556 92C582 78 613 79 636 95" stroke="#E35B43" stroke-width="8" stroke-linecap="round"/>
</svg>
