<svg xmlns="http://www.w3.org/2000/svg" viewBox="0 0 720 540" fill="none">
  <defs>
    <filter id="rough-friends" x="-8%" y="-8%" width="116%" height="116%">
      <feTurbulence type="fractalNoise" baseFrequency="0.014 0.028" numOctaves="2" seed="33" result="noise"/>
      <feDisplacementMap in="SourceGraphic" in2="noise" scale="2.2" xChannelSelector="R" yChannelSelector="G"/>
    </filter>
    <filter id="grain-friends" x="-20%" y="-20%" width="140%" height="140%">
      <feTurbulence type="fractalNoise" baseFrequency="0.86" numOctaves="1" seed="41" result="noise"/>
      <feColorMatrix in="noise" type="matrix" values="1 0 0 0 0 0 1 0 0 0 0 0 1 0 0 0 0 0 0.16 0"/>
    </filter>
    <style>
      .stroke {
        stroke: #5f6f52;
        stroke-linecap: round;
        stroke-linejoin: round;
      }
      .thick { stroke-width: 8.4; }
      .mid { stroke-width: 5.2; }
      .thin { stroke-width: 3.1; }
      .wash { fill: #5f6f52; fill-opacity: 0.12; }
      .shade { fill: #5f6f52; fill-opacity: 0.2; }
    </style>
  </defs>

  <g filter="url(#rough-friends)">
    <path class="wash" d="M147 430c26-22 63-37 111-45 37 18 71 27 102 27 32 0 65-9 102-27 48 8 85 23 111 45-54 15-125 23-213 23-87 0-158-8-213-23Z"/>

    <circle cx="245" cy="274" r="25" class="stroke thick"/>
    <path class="stroke mid" d="M227 264c5-7 11-11 18-13 8 2 14 6 20 13"/>
    <path class="stroke thin" d="M234 281c4 2 8 3 11 3 4 0 8-1 12-3"/>
    <path class="stroke thick" d="M210 367c1-36 10-61 30-76 11-8 24-10 40-8 17 3 30 15 39 37 5 12 9 29 11 50"/>
    <path class="wash" d="M223 353c9-12 21-19 35-22 13 2 25 9 33 21-8 7-18 10-33 10-14 0-26-3-35-9Z"/>

    <circle cx="474" cy="275" r="25" class="stroke thick"/>
    <path class="stroke mid" d="M456 265c5-7 11-11 18-13 8 2 14 6 20 13"/>
    <path class="stroke thin" d="M463 282c4 2 8 3 11 3 4 0 8-1 12-3"/>
    <path class="stroke thick" d="M438 367c1-36 11-61 30-76 11-8 24-10 40-8 18 3 31 15 40 37 5 12 9 29 11 50"/>
    <path class="wash" d="M451 353c9-12 20-19 35-22 13 2 25 9 33 21-8 7-18 10-33 10-14 0-26-3-35-9Z"/>

    <circle cx="360" cy="233" r="22" class="stroke thick"/>
    <path class="stroke mid" d="M345 224c4-6 9-9 15-10 6 1 11 4 15 10"/>
    <path class="stroke thin" d="M351 239c3 2 6 3 9 3 4 0 7-1 10-3"/>
    <path class="stroke thick" d="M331 314c3-28 12-46 29-57 10-6 21-7 31-4 17 5 29 26 35 61"/>
    <path class="wash" d="M341 307c6-11 13-18 22-20 11 2 20 9 25 20-7 5-15 8-24 8-8 0-16-3-23-8Z"/>

    <path class="stroke thick" d="M257 351c24 13 58 20 103 20 46 0 80-7 103-20"/>
    <path class="stroke mid" d="M221 390c34 14 81 21 139 21 59 0 105-7 140-21"/>
    <path class="stroke thin" d="M261 426c26 10 59 15 99 15 41 0 74-5 100-15"/>

    <path class="stroke thick" d="M132 412c19-20 42-34 67-43"/>
    <path class="stroke thick" d="M588 412c-19-20-42-34-67-43"/>
    <path class="stroke mid" d="M110 437c17-10 35-16 55-18"/>
    <path class="stroke mid" d="M610 437c-17-10-35-16-55-18"/>

    <path class="stroke thick" d="M292 174c17 6 39 10 68 10 28 0 50-4 68-10"/>
    <path class="stroke mid" d="M304 160c15-10 34-15 56-16 22 1 40 6 55 16"/>
    <path class="stroke thin" d="M330 143c10-4 20-6 30-7 10 1 20 3 30 7"/>

    <path class="shade" d="M287 403c23 9 48 13 73 13 26 0 50-4 73-13-20 15-45 23-73 23-27 0-52-8-73-23Z"/>
  </g>

  <rect x="56" y="58" width="608" height="424" rx="50" filter="url(#grain-friends)" opacity="0.5"/>
</svg>
