<?xml version="1.0" standalone="no"?>
<!DOCTYPE svg PUBLIC "-//W3C//DTD SVG 20010904//EN"
 "http://www.w3.org/TR/2001/REC-SVG-20010904/DTD/svg10.dtd">
<svg version="1.0" xmlns="http://www.w3.org/2000/svg"
 width="260.000000pt" height="322.000000pt" viewBox="0 0 260.000000 322.000000"
 preserveAspectRatio="xMidYMid meet">

<g transform="translate(0.000000,322.000000) scale(0.100000,-0.100000)"
fill="#000000" stroke="none">
<path d="M785 3196 c-23 -24 -26 -24 -71 -10 -89 26 -121 15 -144 -53 -6 -17
-22 -35 -36 -41 -13 -7 -30 -24 -37 -39 -6 -15 -30 -44 -52 -64 l-40 -38 -1
-84 c-1 -46 -7 -99 -13 -118 -15 -46 -19 -201 -5 -206 6 -2 27 21 48 51 21 30
48 61 60 70 31 20 117 34 251 41 61 3 188 15 284 26 150 18 189 19 290 10 108
-10 123 -15 216 -60 168 -81 213 -146 242 -351 12 -89 21 -118 61 -195 26 -49
64 -109 86 -133 51 -56 148 -120 194 -128 20 -4 44 -12 52 -19 8 -8 27 -11 41
-8 l27 5 7 129 c4 71 11 131 16 135 22 13 -1 225 -36 324 -9 25 -31 68 -50 95
-19 28 -37 70 -41 94 -5 32 -19 57 -50 93 -24 27 -44 53 -44 59 0 27 -63 89
-108 105 -26 10 -59 28 -74 40 -32 26 -119 60 -192 76 -28 5 -66 21 -84 35
-19 14 -73 41 -120 60 -73 29 -95 34 -138 30 -43 -4 -62 0 -125 29 -79 36
-108 40 -157 23 -24 -8 -46 -6 -104 9 -131 35 -126 35 -153 8z"/>
<path d="M1135 2397 c-108 -29 -191 -78 -168 -101 3 -3 79 -6 168 -6 188 0
220 -8 310 -75 67 -51 92 -62 107 -47 31 31 -86 182 -168 217 -52 22 -186 28
-249 12z"/>
<path d="M384 2360 c-44 -18 -95 -118 -80 -157 4 -9 2 -11 -6 -7 -7 5 -9 0 -6
-14 5 -18 1 -23 -20 -27 -34 -7 -121 -36 -194 -66 -59 -25 -78 -52 -59 -86 5
-10 7 -60 5 -113 -2 -52 -1 -87 2 -77 3 9 9 15 14 12 4 -3 8 14 8 37 0 24 3
54 7 68 3 14 8 32 10 40 2 8 4 16 5 18 2 1 3 7 4 13 0 5 12 19 26 30 14 12 19
18 12 14 -11 -6 -11 -3 0 14 20 33 85 53 183 58 77 3 98 0 145 -19 72 -31 100
-71 100 -147 0 -31 -5 -73 -10 -93 -10 -35 -13 -37 -36 -28 -14 6 -33 10 -42
9 -9 -1 0 -6 21 -11 43 -12 45 -23 16 -81 -59 -114 -126 -160 -238 -164 -50
-1 -83 3 -103 13 -31 16 -73 74 -83 116 -4 16 -11 25 -16 22 -5 -3 -6 10 -3
28 4 25 3 29 -5 18 -17 -24 -13 -61 13 -116 38 -83 124 -130 224 -122 107 8
193 73 247 187 20 42 34 60 44 56 11 -4 11 -3 2 9 -10 11 -10 20 0 37 6 12 14
60 17 106 5 81 6 84 35 100 37 19 126 20 163 1 26 -13 27 -14 28 -118 4 -249
117 -380 329 -380 96 0 155 21 218 78 63 56 92 102 125 192 22 61 23 75 14
111 -14 52 -5 106 20 122 21 12 26 42 11 66 -5 7 -13 11 -19 7 -6 -3 -12 -3
-14 2 -1 4 -48 21 -103 37 -89 27 -114 30 -230 30 -153 -1 -213 -19 -284 -85
-23 -22 -45 -40 -47 -40 -3 0 -21 7 -42 16 -54 23 -139 21 -187 -3 l-40 -21
-17 23 c-25 34 -114 74 -181 83 l-58 7 23 35 c28 41 71 59 149 59 58 1 97 19
85 40 -26 42 -138 80 -182 61z m968 -238 c69 -34 83 -69 83 -212 0 -102 -3
-120 -25 -163 -66 -130 -212 -195 -355 -156 -81 22 -153 93 -170 167 -3 18
-11 32 -17 32 -6 0 -8 7 -5 15 4 8 2 17 -3 20 -6 4 -10 -2 -11 -12 0 -11 -3
-13 -6 -5 -3 7 0 18 5 25 6 7 10 47 9 90 -1 42 2 77 6 77 5 0 5 5 2 10 -4 6 5
23 19 37 14 14 26 30 26 35 0 5 4 7 9 3 6 -3 14 2 19 11 5 9 33 25 63 35 80
29 284 23 351 -9z m-515 -254 c-3 -7 -5 -2 -5 12 0 14 2 19 5 13 2 -7 2 -19 0
-25z"/>
<path d="M1100 1840 c-50 -17 -90 -49 -90 -71 0 -16 18 -10 32 10 26 37 89 65
162 72 l71 6 -60 1 c-36 1 -82 -6 -115 -18z"/>
<path d="M1298 1843 c7 -3 16 -2 19 1 4 3 -2 6 -13 5 -11 0 -14 -3 -6 -6z"/>
<path d="M289 1793 c-13 -16 -12 -17 4 -4 9 7 17 15 17 17 0 8 -8 3 -21 -13z"/>
<path d="M2114 1442 c-12 -20 -24 -50 -28 -67 -3 -16 8 -1 24 34 34 72 36 89
4 33z"/>
<path d="M570 1441 c0 -26 49 -61 85 -61 40 0 112 26 101 37 -4 4 -35 10 -69
14 -34 4 -74 10 -89 14 -19 5 -28 3 -28 -4z"/>
<path d="M1170 1370 c0 -5 7 -13 16 -18 20 -11 -55 -43 -171 -71 -174 -42
-299 -51 -375 -27 -25 8 -80 25 -123 39 l-78 24 6 -26 c18 -73 104 -166 129
-141 6 6 19 10 30 11 19 0 19 1 -2 10 -44 17 -19 34 54 36 38 1 125 6 194 12
196 15 284 4 263 -33 -3 -6 13 7 36 29 29 28 43 51 47 77 4 21 10 35 15 32 5
-3 9 4 9 15 0 11 -9 25 -19 31 -24 12 -31 13 -31 0z"/>
<path d="M1757 1339 c4 -13 8 -18 11 -10 2 7 -1 18 -6 23 -8 8 -9 4 -5 -13z"/>
<path d="M2041 1274 c-36 -69 -36 -86 -1 -61 15 10 18 16 8 19 -10 4 -8 16 10
53 34 71 21 63 -17 -11z"/>
<path d="M1770 1294 c0 -10 5 -26 10 -34 8 -11 9 -7 4 15 -8 37 -14 45 -14 19z"/>
<path d="M171 1264 c0 -11 3 -14 6 -6 3 7 2 16 -1 19 -3 4 -6 -2 -5 -13z"/>
<path d="M185 1220 c12 -49 75 -166 116 -215 86 -105 232 -256 261 -271 83
-43 358 -58 506 -28 177 36 592 193 592 224 0 8 14 53 30 100 16 46 27 86 24
89 -2 2 -50 -27 -107 -66 -56 -38 -124 -83 -151 -99 -28 -15 -77 -50 -110 -77
-73 -58 -124 -85 -231 -121 -107 -36 -187 -42 -318 -22 -59 9 -134 16 -166 16
-72 0 -111 24 -161 97 -19 29 -56 71 -82 93 -63 54 -134 150 -175 235 -19 39
-31 59 -28 45z"/>
<path d="M683 1163 c32 -2 81 -2 110 0 29 2 3 3 -58 3 -60 0 -84 -1 -52 -3z"/>
<path d="M1050 1160 c-23 -7 -23 -8 -3 -9 12 -1 25 4 28 9 3 6 5 10 3 9 -2 -1
-14 -5 -28 -9z"/>
<path d="M509 1132 c13 -24 79 -77 86 -70 3 3 -18 24 -46 48 -33 28 -47 36
-40 22z"/>
<path d="M1967 1105 c-9 -19 -15 -35 -12 -35 7 0 37 61 33 66 -3 2 -12 -12
-21 -31z"/>
<path d="M1133 1045 c-25 -25 -33 -40 -25 -43 21 -7 40 6 57 38 24 46 11 48
-32 5z"/>
<path d="M1923 1025 c-13 -28 -14 -38 -4 -48 10 -9 11 -9 6 5 -4 9 1 30 10 47
8 17 13 31 10 31 -3 0 -13 -16 -22 -35z"/>
<path d="M2142 899 c-9 -36 -9 -55 0 -80 l12 -34 7 27 c4 15 4 51 0 80 l-7 53
-12 -46z"/>
<path d="M2151 764 c0 -11 3 -14 6 -6 3 7 2 16 -1 19 -3 4 -6 -2 -5 -13z"/>
<path d="M2367 727 c-14 -22 -13 -26 5 -55 30 -48 128 -70 136 -31 2 13 -8 18
-45 22 -52 6 -84 34 -78 67 5 26 1 25 -18 -3z"/>
<path d="M2311 576 c-36 -38 -97 -50 -178 -36 -64 12 -72 11 -108 -8 -60 -31
-130 -106 -120 -129 5 -10 7 -21 7 -25 -1 -5 2 -8 8 -8 5 0 10 7 10 15 0 9 9
34 21 56 28 55 103 92 157 77 86 -24 181 2 220 60 19 29 11 28 -17 -2z"/>
<path d="M1582 500 c0 -14 2 -19 5 -12 2 6 2 18 0 25 -3 6 -5 1 -5 -13z"/>
<path d="M1585 395 c6 -68 84 -220 141 -279 78 -79 182 -116 324 -116 134 0
239 35 316 106 38 35 38 36 4 12 -88 -62 -201 -98 -310 -98 -75 0 -186 35
-228 71 -18 16 -45 35 -61 43 -58 31 -149 163 -176 257 l-15 54 5 -50z"/>
</g>
</svg>
